<svg width="18" height="12" viewBox="0 0 18 12" fill="none" xmlns="http://www.w3.org/2000/svg">
<path d="M3.7168 1.5V10.5H8.17702V8.75H9.66377V10.5H14.124V1.5H3.7168ZM5.20354 2.5H6.69028V3.5H5.20354V2.5ZM8.17702 2.5H9.66377V3.5H8.17702V2.5ZM11.1505 2.5H12.6373V3.5H11.1505V2.5ZM5.20354 4.5H6.69028V5.5H5.20354V4.5ZM8.17702 4.5H9.66377V5.5H8.17702V4.5ZM11.1505 4.5H12.6373V5.5H11.1505V4.5ZM5.20354 6.5H6.69028V7.5H5.20354V6.5ZM8.17702 6.5H9.66377V7.5H8.17702V6.5ZM11.1505 6.5H12.6373V7.5H11.1505V6.5ZM5.20354 8.5H6.69028V9.5H5.20354V8.5ZM11.1505 8.5H12.6373V9.5H11.1505V8.5Z" fill="#A7A7A7"/>
</svg>
