<svg width="140" height="79" viewBox="0 0 140 79" fill="none" xmlns="http://www.w3.org/2000/svg">
<g clip-path="url(#clip0_1_965)">
<path d="M0 0H140C140 1.7736 138.562 3.21138 136.789 3.21138H3.21138C1.43778 3.21138 0 1.7736 0 0ZM0 0C1.78671 0 3.23512 1.44841 3.23512 3.23512V75.7649C3.23512 77.5516 1.78671 79 0 79V0ZM140 79H0C0 77.2264 1.43778 75.7886 3.21138 75.7886H136.789C138.562 75.7886 140 77.2264 140 79ZM140 79C138.213 79 136.765 77.5516 136.765 75.7649V3.23512C136.765 1.44841 138.213 0 140 0V79Z" fill="#42446E"/>
<path d="M22.4921 50.9406C22.3782 51.1202 22.2101 51.2736 21.9879 51.4009C21.3059 51.7914 20.6528 52.3245 20.5546 53.1042C20.4156 54.2078 21.3335 55.1767 22.4441 55.1165C22.4996 55.1135 22.556 55.1104 22.6134 55.1073C23.8104 55.0431 24.9427 55.011 26.0103 55.011C26.8191 55.011 27.8624 55.0431 29.1403 55.1073C30.5555 55.1785 31.8243 54.1813 32.0654 52.785L32.2087 51.9553C32.2173 51.9058 32.2134 51.855 32.1974 51.8073C32.1543 51.6792 32.0316 51.5951 31.8966 51.6012L31.0571 51.639C30.5718 51.639 30.2321 51.5026 30.038 51.2296C29.8439 50.9566 29.7469 50.4669 29.7469 49.7604C29.7469 41.2181 29.8844 34.3056 30.1593 29.0229C30.3908 24.5761 30.7082 21.8189 31.1116 20.7511C31.2168 20.4728 31.2826 20.149 31.1803 19.8696C31.053 19.522 30.6947 19.3159 30.3295 19.3762C29.4888 19.5149 28.1623 19.7198 26.35 19.9909C24.7452 20.2309 23.2076 20.4487 21.7372 20.6443C20.5462 20.8027 19.6136 21.7524 19.4891 22.9473L19.4368 23.4488C19.4197 23.6128 19.4561 23.7783 19.4834 23.9409C19.5091 24.0936 19.6539 24.1817 19.8088 24.1817H20.5268C21.0444 24.1817 21.4649 24.2138 21.7885 24.2781C22.209 24.4065 22.5002 24.6715 22.6619 25.0729C22.8237 25.4743 22.9046 26.0764 22.9046 26.8793V48.5561C22.9046 49.7122 22.7671 50.507 22.4921 50.9406ZM30.8848 41.9989C30.5871 42.3155 30.4001 42.72 30.3518 43.1519C30.3055 43.5652 30.3886 43.9828 30.5897 44.3469L34.6966 51.7836C35.4083 53.0681 36.0796 53.9834 36.7105 54.5293C37.3413 55.0752 38.142 55.4285 39.1125 55.589C39.5008 55.6533 39.9052 55.6854 40.3257 55.6854L41.4904 55.6372C42.0403 55.6051 42.7035 55.5248 43.48 55.3964C44.3689 55.2493 45.0672 54.5386 45.1871 53.6456L45.3458 52.464C45.3632 52.3345 45.3411 52.2028 45.2823 52.0862C45.1868 51.8966 45.004 51.7683 44.796 51.7263C44.0222 51.5701 43.3166 51.26 42.6793 50.7961C41.9514 50.2662 41.2801 49.4714 40.6654 48.4116L37.582 43.1879C37.2549 42.6338 37.3457 41.9283 37.8023 41.475C39.1934 40.062 40.4228 38.9059 41.4904 38.0067C41.9738 37.5996 42.4638 37.2352 42.9605 36.9136C44.0412 36.214 44.8931 35.1521 45.0608 33.8757L45.2138 32.7119C45.2223 32.647 45.2085 32.5811 45.1746 32.5251C45.1176 32.4306 45.0119 32.3771 44.9019 32.3852C44.4994 32.4147 43.8071 32.45 42.8249 32.4912C41.6764 32.5393 40.6007 32.5634 39.5978 32.5634C38.142 32.5634 36.8156 32.5474 35.6186 32.5153C35.5085 32.5123 35.4018 32.5095 35.2986 32.5068C34.1156 32.4761 33.1101 33.3322 32.9333 34.5023L32.8205 35.2487C32.8099 35.3189 32.8242 35.3906 32.8609 35.4514C32.916 35.5425 33.0147 35.5979 33.1212 35.5991C33.9366 35.6078 34.5183 35.6797 34.8664 35.815C35.2385 35.9595 35.4245 36.2084 35.4245 36.5616C35.4245 36.7864 35.3598 37.0192 35.2304 37.2601C35.101 37.5009 34.8584 37.798 34.5025 38.1512L30.8848 41.9989ZM53.0586 51.9207C52.2915 52.0844 51.6664 52.6772 51.5779 53.4566C51.457 54.5218 52.3611 55.4355 53.4293 55.3445C53.8452 55.309 54.3138 55.2701 54.8353 55.2278C56.6146 55.0833 58.1836 55.011 59.5424 55.011C60.5776 55.011 61.904 55.0431 63.5216 55.1073C63.7675 55.1171 64.0008 55.1265 64.2213 55.1355C65.6452 55.1938 66.9056 54.1863 67.1445 52.7814L67.33 51.6906C67.346 51.5966 67.3209 51.5002 67.261 51.4259C67.1978 51.3474 67.1026 51.3018 67.0019 51.3063C66.8503 51.3131 66.6283 51.3277 66.3361 51.35C65.9156 51.3821 65.4303 51.3982 64.8803 51.3982C64.1362 51.3982 63.6105 51.1573 63.3032 50.6756C62.9958 50.1939 62.8422 49.375 62.8422 48.2189C62.8422 42.9201 63.0525 38.7453 63.473 35.6945C63.6024 34.7632 63.8127 34.0326 64.1039 33.5028C64.2745 33.1922 64.4896 32.8954 64.7492 32.6124C65.0912 32.2396 65.2463 31.7148 65.069 31.2409C64.874 30.7197 64.3416 30.4054 63.791 30.4864L63.4245 30.5403C62.8745 30.6045 62.1143 30.7089 61.1437 30.8534C60.1732 30.9979 58.9115 31.1665 57.3587 31.3592C56.1812 31.5165 54.8372 31.6739 53.3269 31.8312C52.1433 31.9545 51.2007 32.8825 51.0723 34.0656L50.9771 34.9431C50.9618 35.0842 51.0066 35.2253 51.1005 35.3318C51.2195 35.4669 51.4015 35.5287 51.5799 35.5045C51.7438 35.4821 51.9554 35.4572 52.2148 35.4296C52.6677 35.3814 53.153 35.3573 53.6706 35.3573C54.5764 35.3573 55.1992 35.542 55.5389 35.9113C55.8786 36.2806 56.0484 37.0112 56.0484 38.1031V48.1707C56.0484 49.5195 55.733 50.4749 55.1021 51.0369C54.6616 51.4294 53.9804 51.724 53.0586 51.9207ZM76.551 52.4098C78.3465 54.5293 80.8618 55.589 84.0969 55.589C86.3939 55.589 88.3997 55.0511 90.1143 53.9753C91.8289 52.8995 93.1472 51.358 94.0692 49.3509C94.9912 47.3438 95.4522 44.9915 95.4522 42.2939C95.4522 38.5366 94.5545 35.6062 92.759 33.5028C90.9635 31.3993 88.4805 30.3476 85.3101 30.3476C83.0132 30.3476 80.9993 30.8855 79.2685 31.9613C77.5377 33.0371 76.2032 34.5705 75.2651 36.5616C74.3269 38.5527 73.8578 40.8809 73.8578 43.5464C73.8578 47.3358 74.7555 50.2903 76.551 52.4098ZM89.4106 46.8461C88.3592 47.665 86.8468 48.0744 84.8734 48.0744C82.8353 48.0744 81.2339 47.6168 80.0692 46.7015C78.9046 45.7863 78.3223 44.5258 78.3223 42.9201C78.3223 41.3787 78.8399 40.1824 79.8751 39.3314C80.9104 38.4804 82.3985 38.0549 84.3396 38.0549C86.4424 38.0549 88.0761 38.5205 89.2408 39.4518C90.4054 40.3832 90.9878 41.6677 90.9878 43.3055C90.9878 44.847 90.4621 46.0272 89.4106 46.8461ZM102.197 58.5034C102.844 59.3223 103.88 59.7317 105.303 59.7317C107.697 59.7317 110.067 59.2099 112.412 58.1662C114.758 57.1225 116.667 55.7416 118.139 54.0235C119.611 52.3054 120.347 50.5311 120.347 48.7006C120.347 46.549 119.425 44.855 117.58 43.6186C116.024 42.5754 113.72 41.7207 110.667 41.0547C109.673 40.838 108.981 39.9191 109.092 38.9083C109.201 37.929 110.028 37.1857 111.013 37.2007C112.487 37.2232 113.867 37.2751 115.154 37.3564C116.378 37.4337 117.296 37.4921 117.907 37.5314C118.315 37.5576 118.713 37.4012 118.994 37.1043C119.18 36.9075 119.303 36.66 119.348 36.3932L120.242 31.1396C120.418 30.1009 119.572 29.1728 118.521 29.253C117.864 29.3032 117.354 29.7839 116.957 30.3096C116.805 30.5106 116.633 30.6677 116.44 30.7811C116.003 31.038 115.316 31.1825 114.378 31.2147L105.188 31.5421C105.012 31.5484 104.846 31.6205 104.721 31.7441C104.596 31.8682 104.523 32.0345 104.515 32.2105C104.472 33.1087 104.371 34.7919 104.211 37.2601C104.041 39.8893 103.819 42.5259 103.544 45.1698C103.521 45.3947 103.589 45.6196 103.733 45.7941C103.869 45.9593 104.063 46.0663 104.275 46.0947C107.334 46.5048 109.489 47.0121 110.738 47.6168C112.032 48.243 112.679 49.1181 112.679 50.2421C112.679 51.3661 112.057 52.2813 110.811 52.9878C109.565 53.6943 108.005 54.0476 106.128 54.0476C104.783 54.0476 103.588 53.8875 102.544 53.5673C102.124 53.4384 101.659 53.5342 101.356 53.8527C101.15 54.0691 101.042 54.3621 101.068 54.6597C101.224 56.4668 101.601 57.7481 102.197 58.5034Z" fill="#42446E"/>
</g>
<defs>
<clipPath id="clip0_1_965">
<rect width="140" height="79" fill="white"/>
</clipPath>
</defs>
</svg>
