<svg width="40" height="40" viewBox="0 0 40 40" fill="none" xmlns="http://www.w3.org/2000/svg">
<rect width="40" height="40" fill="white"/>
<path d="M28.2028 23.6105C28.22 24.9229 27.8537 25.9851 27.1037 26.7143C26.3516 27.4446 25.3018 27.8406 24.0343 27.8573L15.4173 27.9706C14.1498 27.9872 13.0889 27.619 12.3189 26.9087C11.5494 26.1575 11.1531 25.1042 11.1359 23.7918L11.0218 15.1122C11.0051 13.8419 14.3702 9.69176 15.1197 8.91954C11.4481 8.96991 9.0323 11.4568 9.0807 15.1378L9.19481 23.8163C9.21874 25.6369 9.83016 27.1966 11.0278 28.3234C12.1831 29.4087 13.7103 29.9399 15.4429 29.9171L24.0599 29.8038C25.8752 29.7799 27.3884 29.1667 28.4723 28.094C29.5986 26.9787 30.1699 25.4044 30.1459 23.5839L30.0313 14.8623C30.0079 13.0848 29.396 11.5681 28.2837 10.4823C27.1709 9.35334 25.5981 8.78177 23.8257 8.80507L15.1228 8.9195L12.123 12.0084C12.8321 11.2787 13.9249 10.8832 15.1924 10.8665L23.8932 10.7521C25.1607 10.7354 26.2216 11.1027 26.9921 11.856C27.7208 12.6077 28.1558 13.6605 28.1719 14.8878L28.2866 23.6094L28.2028 23.6105ZM25.0907 15.0543C25.2545 15.057 25.4172 15.0267 25.5691 14.9652C25.721 14.9037 25.8591 14.8122 25.9751 14.6963C26.0911 14.5803 26.1827 14.4422 26.2446 14.2902C26.3064 14.1381 26.3371 13.9751 26.3349 13.8109C26.3328 13.6467 26.2978 13.4846 26.232 13.3342C26.1662 13.1838 26.071 13.0482 25.9519 12.9354C25.8329 12.8225 25.6925 12.7347 25.539 12.6773C25.3856 12.6198 25.2221 12.5937 25.0584 12.6007C24.7401 12.6142 24.4396 12.7515 24.2207 12.9835C24.0017 13.2155 23.8816 13.5238 23.8858 13.8431C23.89 14.1624 24.0182 14.4675 24.2432 14.6937C24.4681 14.9198 24.7721 15.0492 25.0907 15.0543ZM19.659 22.8334C18.7414 22.8413 17.8579 22.4858 17.2006 21.844C16.5433 21.2023 16.1654 20.3264 16.1492 19.4069C16.1412 18.4873 16.4959 17.6017 17.1361 16.943C17.7763 16.2842 18.6502 15.9055 19.5677 15.8893C20.4852 15.8814 21.3688 16.237 22.0261 16.8787C22.6834 17.5204 23.0613 18.3963 23.0775 19.3158C23.0852 20.2353 22.7303 21.1205 22.0901 21.7791C21.45 22.4376 20.5762 22.8162 19.659 22.8324L19.659 22.8334ZM19.5421 13.9428C16.586 13.9816 14.1675 16.4266 14.207 19.4324C14.2145 20.1446 14.3623 20.8483 14.6419 21.503C14.9216 22.1577 15.3276 22.7506 15.8366 23.2475C16.3456 23.7445 16.9476 24.1357 17.608 24.3987C18.2684 24.6616 18.9741 24.7912 19.6846 24.7799C22.6836 24.7405 25.0575 22.2531 25.0186 19.2913C24.9796 16.3264 22.4982 13.9039 19.5421 13.9428Z" fill="black"/>
</svg>
