<svg width="18" height="12" viewBox="0 0 18 12" fill="none" xmlns="http://www.w3.org/2000/svg">
<g clip-path="url(#clip0_80_90)">
<path d="M5.96261 6.5C5.76546 6.5 5.57638 6.44732 5.43697 6.35355C5.29756 6.25979 5.21924 6.13261 5.21924 6C5.21924 5.86739 5.29756 5.74021 5.43697 5.64645C5.57638 5.55268 5.76546 5.5 5.96261 5.5C6.15976 5.5 6.34884 5.55268 6.48825 5.64645C6.62766 5.74021 6.70598 5.86739 6.70598 6C6.70598 6.13261 6.62766 6.25979 6.48825 6.35355C6.34884 6.44732 6.15976 6.5 5.96261 6.5ZM5.96261 8.5C5.76546 8.5 5.57638 8.44732 5.43697 8.35355C5.29756 8.25979 5.21924 8.13261 5.21924 8C5.21924 7.86739 5.29756 7.74021 5.43697 7.64645C5.57638 7.55268 5.76546 7.5 5.96261 7.5C6.15976 7.5 6.34884 7.55268 6.48825 7.64645C6.62766 7.74021 6.70598 7.86739 6.70598 8C6.70598 8.13261 6.62766 8.25979 6.48825 8.35355C6.34884 8.44732 6.15976 8.5 5.96261 8.5ZM8.19272 8C8.19272 8.13261 8.27104 8.25979 8.41045 8.35355C8.54986 8.44732 8.73894 8.5 8.93609 8.5C9.13325 8.5 9.32233 8.44732 9.46174 8.35355C9.60115 8.25979 9.67947 8.13261 9.67947 8C9.67947 7.86739 9.60115 7.74021 9.46174 7.64645C9.32233 7.55268 9.13325 7.5 8.93609 7.5C8.73894 7.5 8.54986 7.55268 8.41045 7.64645C8.27104 7.74021 8.19272 7.86739 8.19272 8ZM11.9096 8.5C11.7124 8.5 11.5233 8.44732 11.3839 8.35355C11.2445 8.25979 11.1662 8.13261 11.1662 8C11.1662 7.86739 11.2445 7.74021 11.3839 7.64645C11.5233 7.55268 11.7124 7.5 11.9096 7.5C12.1067 7.5 12.2958 7.55268 12.4352 7.64645C12.5746 7.74021 12.653 7.86739 12.653 8C12.653 8.13261 12.5746 8.25979 12.4352 8.35355C12.2958 8.44732 12.1067 8.5 11.9096 8.5ZM8.19272 6C8.19272 6.13261 8.27104 6.25979 8.41045 6.35355C8.54986 6.44732 8.73894 6.5 8.93609 6.5C9.13325 6.5 9.32233 6.44732 9.46174 6.35355C9.60115 6.25979 9.67947 6.13261 9.67947 6C9.67947 5.86739 9.60115 5.74021 9.46174 5.64645C9.32233 5.55268 9.13325 5.5 8.93609 5.5C8.73894 5.5 8.54986 5.55268 8.41045 5.64645C8.27104 5.74021 8.19272 5.86739 8.19272 6ZM11.9096 6.5C11.7124 6.5 11.5233 6.44732 11.3839 6.35355C11.2445 6.25979 11.1662 6.13261 11.1662 6C11.1662 5.86739 11.2445 5.74021 11.3839 5.64645C11.5233 5.55268 11.7124 5.5 11.9096 5.5C12.1067 5.5 12.2958 5.55268 12.4352 5.64645C12.5746 5.74021 12.653 5.86739 12.653 6C12.653 6.13261 12.5746 6.25979 12.4352 6.35355C12.2958 6.44732 12.1067 6.5 11.9096 6.5ZM5.96261 3.5C5.76546 3.5 5.57638 3.55268 5.43697 3.64645C5.29756 3.74021 5.21924 3.86739 5.21924 4C5.21924 4.13261 5.29756 4.25979 5.43697 4.35355C5.57638 4.44732 5.76546 4.5 5.96261 4.5H11.9096C12.1067 4.5 12.2958 4.44732 12.4352 4.35355C12.5746 4.25979 12.653 4.13261 12.653 4C12.653 3.86739 12.5746 3.74021 12.4352 3.64645C12.2958 3.55268 12.1067 3.5 11.9096 3.5H5.96261Z" fill="#A7A7A7"/>
<path fill-rule="evenodd" clip-rule="evenodd" d="M4.47584 1.5C3.88438 1.5 3.31714 1.65804 2.89891 1.93934C2.48069 2.22064 2.24573 2.60218 2.24573 3V9C2.24573 9.39782 2.48069 9.77936 2.89891 10.0607C3.31714 10.342 3.88438 10.5 4.47584 10.5H13.3963C13.9878 10.5 14.555 10.342 14.9732 10.0607C15.3915 9.77936 15.6264 9.39782 15.6264 9V3C15.6264 2.60218 15.3915 2.22064 14.9732 1.93934C14.555 1.65804 13.9878 1.5 13.3963 1.5H4.47584ZM13.3963 2.5H4.47584C4.27869 2.5 4.08961 2.55268 3.9502 2.64645C3.81079 2.74021 3.73247 2.86739 3.73247 3V9C3.73247 9.13261 3.81079 9.25979 3.9502 9.35355C4.08961 9.44732 4.27869 9.5 4.47584 9.5H13.3963C13.5935 9.5 13.7825 9.44732 13.9219 9.35355C14.0613 9.25979 14.1397 9.13261 14.1397 9V3C14.1397 2.86739 14.0613 2.74021 13.9219 2.64645C13.7825 2.55268 13.5935 2.5 13.3963 2.5Z" fill="#A7A7A7"/>
</g>
<defs>
<clipPath id="clip0_80_90">
<rect width="17.8409" height="12" fill="white" transform="translate(0.015625)"/>
</clipPath>
</defs>
</svg>
