<svg width="113" height="101" viewBox="0 0 113 101" fill="none" xmlns="http://www.w3.org/2000/svg">
<g clip-path="url(#clip0_1_52)">
<path d="M92.9055 32.7028C91.703 32.2887 90.4903 31.9051 89.2686 31.5524C89.4738 30.7107 89.6627 29.8792 89.8304 29.0624C92.5837 15.6484 90.7838 4.84184 84.6359 1.28381C78.7415 -2.12716 69.1015 1.42955 59.3658 9.93348C58.4063 10.7731 57.4681 11.6369 56.552 12.524C55.9388 11.9341 55.3148 11.3556 54.6802 10.7889C44.4766 1.69623 34.2492 -2.13602 28.108 1.43221C22.2188 4.8538 20.4749 15.0127 22.9537 27.7254C23.2003 28.9845 23.4787 30.2371 23.7887 31.4819C22.341 31.8948 20.9441 32.3342 19.6072 32.802C7.64431 36.9882 0.00463867 43.5483 0.00463867 50.353C0.00463867 57.3809 8.20617 64.4301 20.666 68.7044C21.6762 69.0495 22.6947 69.3693 23.7208 69.6635C23.3875 71.0042 23.0917 72.3541 22.8336 73.7114C20.4705 86.2035 22.3159 96.1224 28.1892 99.5223C34.2554 103.033 44.4369 99.4248 54.3505 90.7268C55.1544 90.0197 55.9406 89.2925 56.7083 88.546C57.7003 89.5067 58.7188 90.4394 59.7626 91.343C69.3659 99.6365 78.85 102.985 84.7176 99.5763C90.7781 96.055 92.7479 85.3995 90.1906 72.4357C89.9891 71.42 89.7632 70.4094 89.5131 69.4048C90.2281 69.1921 90.9299 68.9733 91.614 68.7456C104.567 64.4385 112.995 57.4748 112.995 50.353C112.995 43.5235 105.109 36.9191 92.9055 32.7028ZM90.0961 64.1474C89.4782 64.3525 88.8444 64.5506 88.1982 64.7433C86.7682 60.1996 84.8385 55.3684 82.4768 50.3764C84.7304 45.5036 86.5859 40.7341 87.9758 36.2201C89.1317 36.5558 90.2533 36.9098 91.3346 37.2832C101.791 40.8962 108.168 46.2372 108.168 50.353C108.168 54.7367 101.28 60.4277 90.0961 64.1474ZM85.4556 73.3765C86.5864 79.1087 86.7475 84.2916 85.9985 88.3436C85.3258 91.9845 83.9726 94.4116 82.2989 95.3839C78.7384 97.4526 71.1234 94.7637 62.9109 87.6707C61.94 86.8305 60.9926 85.9634 60.0698 85.0704C63.2538 81.5757 66.4356 77.5131 69.5411 73.0009C75.0035 72.5145 80.164 71.7189 84.8438 70.6332C85.0693 71.5426 85.2732 72.4574 85.4556 73.3765ZM38.5256 95.0264C35.0467 96.2592 32.2758 96.2947 30.6008 95.3254C27.0368 93.2625 25.5551 85.2981 27.5761 74.6151C27.8164 73.3527 28.0914 72.0973 28.401 70.8502C33.0292 71.8779 38.1522 72.6168 43.6274 73.0625C46.7541 77.4777 50.0277 81.5358 53.327 85.0894C52.6258 85.7704 51.9081 86.4339 51.1744 87.0793C46.7903 90.9253 42.3973 93.6541 38.5256 95.0264ZM22.2276 64.1204C16.718 62.2302 12.1679 59.7739 9.04919 57.0934C6.24649 54.6849 4.8319 52.2932 4.8319 50.353C4.8319 46.2235 10.9656 40.9564 21.1961 37.3767C22.4377 36.9426 23.7371 36.5328 25.0855 36.1483C26.4996 40.7642 28.3543 45.5905 30.5924 50.4708C28.3251 55.4233 26.444 60.3267 25.0162 64.9971C24.0796 64.7278 23.1498 64.4355 22.2276 64.1204ZM27.6909 26.7947C25.5674 15.9031 26.9776 7.68712 30.5267 5.62504C34.3066 3.42873 42.6652 6.56017 51.4754 14.4116C52.0499 14.9247 52.6151 15.4483 53.1707 15.982C49.8878 19.5201 46.6442 23.5481 43.5453 27.9372C38.2312 28.4315 33.1444 29.2254 28.4677 30.289C28.1795 29.1311 27.9205 27.9661 27.6909 26.7952V26.7947ZM76.43 38.874C75.3254 36.9589 74.1797 35.068 72.9939 33.2025C76.599 33.6601 80.0532 34.2674 83.2968 35.0098C82.3232 38.1426 81.1094 41.4176 79.6807 44.7754C78.6364 42.7867 77.5526 40.8192 76.43 38.874ZM56.5542 19.4443C58.7805 21.8652 61.0103 24.5679 63.2035 27.5004C58.7545 27.2895 54.298 27.2886 49.849 27.4977C52.0443 24.5922 54.2931 21.8931 56.5542 19.4443ZM36.5509 38.9072C35.4424 40.8368 34.3788 42.792 33.3612 44.7714C31.9558 41.4255 30.7531 38.1355 29.7711 34.9584C32.9948 34.2346 36.4326 33.6428 40.0148 33.1936C38.8158 35.0705 37.6608 36.9754 36.5509 38.9067V38.9072ZM40.1176 67.857C36.4168 67.4424 32.9273 66.8811 29.7044 66.1768C30.7019 62.943 31.9311 59.583 33.3669 56.1653C34.3886 58.1462 35.4566 60.1026 36.5699 62.0331C37.7148 64.0177 38.9003 65.9615 40.1176 67.857ZM56.6875 81.6027C54.3995 79.1256 52.1176 76.3848 49.8891 73.4372C52.0527 73.5223 54.2582 73.5657 56.5 73.5657C58.803 73.5657 61.0796 73.5139 63.3204 73.4138C61.1202 76.4145 58.8988 79.1592 56.6875 81.6027ZM79.7262 55.9908C81.2365 59.4461 82.5094 62.7884 83.5202 65.9668C80.2443 66.7172 76.7072 67.3214 72.9803 67.7702C74.1745 65.87 75.331 63.9462 76.449 61.9999C77.5857 60.0215 78.6783 58.018 79.7262 55.9908ZM72.2679 59.5794C70.5563 62.5635 68.7486 65.491 66.8474 68.3571C63.4037 68.6019 59.9523 68.7235 56.5 68.7217C52.9836 68.7217 49.5634 68.6118 46.2699 68.3974C44.3191 65.5379 42.4769 62.6053 40.747 59.606H40.7475C39.0258 56.6225 37.4176 53.5745 35.9264 50.4686C37.4138 47.3619 39.0171 44.3125 40.7329 41.3268L40.7325 41.3272C42.4476 38.3407 44.2752 35.4207 46.2112 32.5734C49.5713 32.3183 53.0171 32.1854 56.4995 32.1854H56.5C59.9983 32.1854 63.4484 32.3196 66.8077 32.5765C68.7242 35.4195 70.5401 38.3295 72.252 41.3011C73.9735 44.2802 75.598 47.3148 77.123 50.3999C75.6137 53.5166 73.9943 56.5784 72.2679 59.5794ZM82.2252 5.48062C86.0086 7.67073 87.4801 16.5025 85.1029 28.0842C84.9511 28.8231 84.7807 29.5758 84.5953 30.339C79.9071 29.2528 74.8168 28.4453 69.4873 27.9434C66.3827 23.506 63.1655 19.4718 59.936 15.9793C60.7824 15.1605 61.6489 14.3628 62.5348 13.5872C70.8767 6.30147 78.673 3.42474 82.2252 5.48062ZM56.5 40.2264C62.0723 40.2264 66.5897 44.7603 66.5897 50.353C66.5897 55.9456 62.0723 60.4796 56.5 60.4796C50.9277 60.4796 46.4102 55.9456 46.4102 50.353C46.4102 44.7603 50.9277 40.2264 56.5 40.2264Z" fill="#00D8FF"/>
</g>
<defs>
<clipPath id="clip0_1_52">
<rect width="113" height="101" fill="white"/>
</clipPath>
</defs>
</svg>
